<svg width="48.000000" height="48.000000" viewBox="0 0 48 48" fill="none" xmlns="http://www.w3.org/2000/svg" xmlns:xlink="http://www.w3.org/1999/xlink">
	<desc>
			Created with Pixso.
	</desc>
	<defs>
		<clipPath id="clip2_184">
			<rect id="u:instagram" width="24.000000" height="24.000000" transform="translate(12.000000 12.000000)" fill="white" fill-opacity="0"/>
		</clipPath>
	</defs>
	<path id="Ellipse 5" d="M48 24C48 37.2549 37.2548 48 24 48C10.7452 48 0 37.2549 0 24C0 10.7451 10.7452 0 24 0C37.2548 0 48 10.7451 48 24Z" fill="#C4C4C4" fill-opacity="0.100000" fill-rule="nonzero"/>
	<rect id="u:instagram" width="24.000000" height="24.000000" transform="translate(12.000000 12.000000)" fill="#FFFFFF" fill-opacity="0"/>
	<g clip-path="url(#clip2_184)">
		<path id="Vector" d="M29.34 17.46C29.1027 17.46 28.8707 17.5303 28.6733 17.6624C28.476 17.7942 28.3221 17.9814 28.2313 18.2007C28.1405 18.4202 28.1168 18.6614 28.1631 18.894C28.2094 19.127 28.3237 19.3408 28.4915 19.5085C28.6593 19.6763 28.8731 19.7905 29.1059 19.8369C29.3387 19.8833 29.58 19.8594 29.7992 19.7686C30.0185 19.6777 30.2059 19.5239 30.3378 19.3267C30.4696 19.1294 30.54 18.8972 30.54 18.6599C30.54 18.3418 30.4136 18.0366 30.1885 17.8115C29.9635 17.5864 29.6583 17.46 29.34 17.46ZM33.94 19.8799C33.9205 19.0503 33.7651 18.2295 33.48 17.45C33.2257 16.7832 32.83 16.1792 32.32 15.6799C31.8248 15.1675 31.2195 14.7742 30.55 14.53C29.7726 14.2361 28.9509 14.0771 28.12 14.0601C27.06 14 26.72 14 24 14C21.28 14 20.94 14 19.88 14.0601C19.0491 14.0771 18.2274 14.2361 17.45 14.53C16.7817 14.7766 16.1769 15.1697 15.68 15.6799C15.1674 16.1753 14.7742 16.7805 14.53 17.45C14.2361 18.2273 14.0772 19.0491 14.06 19.8799C14 20.9399 14 21.28 14 24C14 26.72 14 27.0601 14.06 28.1201C14.0772 28.9509 14.2361 29.7727 14.53 30.55C14.7742 31.2195 15.1674 31.8247 15.68 32.3201C16.1769 32.8303 16.7817 33.2234 17.45 33.47C18.2274 33.7639 19.0491 33.9229 19.88 33.9399C20.94 34 21.28 34 24 34C26.72 34 27.06 34 28.12 33.9399C28.9509 33.9229 29.7726 33.7639 30.55 33.47C31.2195 33.2258 31.8248 32.8325 32.32 32.3201C32.8322 31.8225 33.2283 31.2183 33.48 30.55C33.7651 29.7705 33.9205 28.9497 33.94 28.1201C33.94 27.0601 34 26.72 34 24C34 21.28 34 20.9399 33.94 19.8799ZM32.14 28C32.1327 28.6348 32.0178 29.2637 31.8 29.8601C31.6403 30.2952 31.3839 30.6885 31.05 31.01C30.7256 31.3406 30.3333 31.5964 29.9 31.76C29.3037 31.9778 28.6747 32.0928 28.04 32.1001C27.04 32.1499 26.67 32.1599 24.04 32.1599C21.41 32.1599 21.04 32.1599 20.04 32.1001C19.3809 32.1123 18.7246 32.0107 18.1 31.8C17.6858 31.6282 17.3113 31.3728 17 31.05C16.6681 30.7288 16.4149 30.3352 16.26 29.8999C16.0159 29.2952 15.8804 28.6519 15.86 28C15.86 27 15.8 26.6299 15.8 24C15.8 21.3701 15.8 21 15.86 20C15.8645 19.3511 15.983 18.708 16.21 18.1001C16.386 17.678 16.6562 17.3018 17 17C17.3038 16.6562 17.6793 16.3831 18.1 16.2C18.7095 15.98 19.352 15.865 20 15.8601C21 15.8601 21.37 15.8 24 15.8C26.63 15.8 27 15.8 28 15.8601C28.6348 15.8672 29.2637 15.9822 29.86 16.2C30.3145 16.3687 30.7223 16.6428 31.05 17C31.3777 17.3071 31.6338 17.6826 31.8 18.1001C32.0223 18.709 32.1373 19.3518 32.14 20C32.19 21 32.2 21.3701 32.2 24C32.2 26.6299 32.19 27 32.14 28ZM24 18.8701C22.9858 18.8721 21.9949 19.1746 21.1526 19.7395C20.3104 20.3042 19.6544 21.1062 19.2676 22.0437C18.8809 22.9812 18.7807 24.0125 18.9798 25.0068C19.1789 26.0015 19.6682 26.9146 20.386 27.6309C21.1039 28.3474 22.018 28.835 23.0129 29.0322C24.0077 29.2292 25.0387 29.1272 25.9755 28.7385C26.9123 28.3499 27.7129 27.6924 28.2761 26.8491C28.8394 26.0056 29.14 25.0142 29.14 24C29.1413 23.3252 29.0092 22.6565 28.7512 22.033C28.4933 21.4094 28.1146 20.8428 27.6368 20.366C27.1592 19.8894 26.5919 19.5117 25.9678 19.2549C25.3436 18.9983 24.6749 18.8674 24 18.8701ZM24 27.3301C23.3414 27.3301 22.6976 27.1348 22.15 26.7688C21.6024 26.4028 21.1755 25.8828 20.9235 25.2744C20.6714 24.6658 20.6055 23.9963 20.734 23.3503C20.8625 22.7043 21.1796 22.1111 21.6453 21.6453C22.111 21.1797 22.7044 20.8625 23.3503 20.7339C23.9963 20.6055 24.6658 20.6714 25.2744 20.9236C25.8828 21.1755 26.4029 21.6023 26.7688 22.1499C27.1347 22.6975 27.33 23.3413 27.33 24C27.33 24.4373 27.2439 24.8704 27.0765 25.2744C26.9092 25.6785 26.6639 26.0454 26.3547 26.3547C26.0455 26.6638 25.6783 26.9092 25.2744 27.0764C24.8703 27.2439 24.4373 27.3301 24 27.3301Z" fill="#FFFFFF" fill-opacity="1.000000" fill-rule="nonzero"/>
	</g>
</svg>
