<svg width="48.000000" height="48.000000" viewBox="0 0 48 48" fill="none" xmlns="http://www.w3.org/2000/svg" xmlns:xlink="http://www.w3.org/1999/xlink">
	<desc>
			Created with Pixso.
	</desc>
	<defs>
		<clipPath id="clip2_180">
			<rect id="u:twitter" width="24.000000" height="24.000000" transform="translate(12.000000 12.000000)" fill="white" fill-opacity="0"/>
		</clipPath>
	</defs>
	<circle id="Ellipse 5" cx="24.000000" cy="24.000000" r="24.000000" fill="#C4C4C4" fill-opacity="0.100000"/>
	<rect id="u:twitter" width="24.000000" height="24.000000" transform="translate(12.000000 12.000000)" fill="#FFFFFF" fill-opacity="0"/>
	<g clip-path="url(#clip2_180)">
		<path id="Vector" d="M34 17.8003C33.2484 18.1262 32.4534 18.3418 31.64 18.4402C32.4982 17.9275 33.1413 17.1211 33.45 16.1702C32.6436 16.6504 31.7607 16.9885 30.84 17.1702C30.2245 16.5027 29.405 16.0586 28.5098 15.907C27.6146 15.7556 26.6945 15.9055 25.8938 16.3335C25.093 16.7612 24.4569 17.4426 24.0853 18.271C23.7136 19.0994 23.6273 20.0276 23.84 20.9102C22.2094 20.8276 20.6144 20.4031 19.1586 19.6641C17.7029 18.925 16.4188 17.8879 15.39 16.6201C15.0291 17.2505 14.8395 17.9641 14.84 18.6902C14.8387 19.3645 15.0042 20.0288 15.3218 20.6238C15.6393 21.2188 16.099 21.7258 16.66 22.1001C16.008 22.0825 15.3699 21.9075 14.8 21.5901L14.8 21.6401C14.8049 22.5852 15.136 23.4993 15.7373 24.2283C16.3386 24.957 17.1733 25.4558 18.1 25.6401C17.7432 25.7488 17.3729 25.8059 17 25.8103C16.7419 25.8071 16.4844 25.7837 16.23 25.7402C16.4939 26.553 17.0046 27.2634 17.6911 27.7725C18.3775 28.2815 19.2056 28.5637 20.06 28.5803C18.6172 29.7156 16.8359 30.335 15 30.3403C14.6657 30.3413 14.3317 30.3213 14 30.2803C15.8745 31.4905 18.0588 32.1328 20.29 32.1301C21.8297 32.1462 23.3571 31.8552 24.7831 31.2742C26.2091 30.6934 27.505 29.834 28.5952 28.7468C29.6854 27.6594 30.548 26.3657 31.1326 24.9412C31.7172 23.5166 32.012 21.99 32 20.4502C32 20.2803 32 20.1001 32 19.9202C32.7847 19.335 33.4615 18.6177 34 17.8003Z" fill="#FFFFFF" fill-opacity="1.000000" fill-rule="nonzero"/>
	</g>
</svg>
