<svg width="48.000000" height="48.000000" viewBox="0 0 48 48" fill="none" xmlns="http://www.w3.org/2000/svg" xmlns:xlink="http://www.w3.org/1999/xlink">
	<desc>
			Created with Pixso.
	</desc>
	<defs>
		<clipPath id="clip2_186">
			<rect id="u:vk" width="24.000000" height="24.000000" transform="translate(12.000000 12.000000)" fill="white" fill-opacity="0"/>
		</clipPath>
	</defs>
	<circle id="Ellipse 5" cx="24.000000" cy="24.000000" r="24.000000" fill="#C4C4C4" fill-opacity="0.100000"/>
	<rect id="u:vk" width="24.000000" height="24.000000" transform="translate(12.000000 12.000000)" fill="#FFFFFF" fill-opacity="0"/>
	<g clip-path="url(#clip2_186)">
		<path id="Vector" d="M27.0729 14L20.9375 14C15.3333 14 14 15.3333 14 20.927L14 27.0625C14 32.6667 15.3229 34 20.9271 34L27.0625 34C32.6667 34 34 32.677 34 27.073L34 20.9375C34 15.3333 32.6771 14 27.0729 14ZM30.1458 28.2708L28.6875 28.2708C28.1354 28.2708 27.9688 27.823 26.9792 26.8333C26.1146 26 25.75 25.8958 25.5312 25.8958C25.2292 25.8958 25.1458 25.9792 25.1458 26.3958L25.1458 27.7083C25.1458 28.0625 25.0312 28.2708 24.1042 28.2708C23.2046 28.2104 22.3322 27.937 21.5589 27.4734C20.7856 27.0098 20.1335 26.3691 19.6562 25.6042C18.5234 24.1941 17.7351 22.5391 17.3542 20.7708C17.3542 20.552 17.4375 20.3542 17.8542 20.3542L19.3125 20.3542C19.6875 20.3542 19.8229 20.5208 19.9688 20.9062C20.6771 22.9895 21.8854 24.802 22.375 24.802C22.5625 24.802 22.6458 24.7188 22.6458 24.25L22.6458 22.1042C22.5833 21.125 22.0625 21.0417 22.0625 20.6875C22.0693 20.594 22.1124 20.5071 22.1824 20.4448C22.2524 20.3826 22.3439 20.3501 22.4375 20.3542L24.7292 20.3542C25.0417 20.3542 25.1458 20.5105 25.1458 20.8855L25.1458 23.7812C25.1458 24.0938 25.2812 24.198 25.375 24.198C25.5625 24.198 25.7083 24.0938 26.0521 23.75C26.7908 22.8491 27.3943 21.8457 27.8438 20.7708C27.8896 20.6416 27.9766 20.5308 28.0913 20.4556C28.2061 20.3804 28.3423 20.3447 28.4792 20.3542L29.9375 20.3542C30.375 20.3542 30.4688 20.573 30.375 20.8855C29.8444 22.0737 29.1879 23.2017 28.4167 24.25C28.2604 24.4895 28.1979 24.6145 28.4167 24.8958C28.5625 25.1145 29.0729 25.5417 29.4167 25.948C29.9167 26.4465 30.3318 27.0237 30.6458 27.6562C30.7708 28.0625 30.5625 28.2708 30.1458 28.2708Z" fill="#FFFFFF" fill-opacity="1.000000" fill-rule="nonzero"/>
	</g>
</svg>
